<svg xmlns="http://www.w3.org/2000/svg" width="800" height="300" viewBox="0 0 800 300"><rect width="100%" height="100%" fill="#DDDDDD"/><path fill="#999999" d="m273.62 106.875-5.02 9.53q-.9 1.57-1.91 2.28-1.02.72-2.52.72-1.57 0-3.41-1.17-1.83-1.16-4.39-2.58-2.54-1.43-5.96-2.59-3.41-1.16-8.06-1.16-4.2 0-7.35 1.01t-5.29 2.81q-2.13 1.8-3.19 4.31-1.05 2.51-1.05 5.51 0 3.83 2.14 6.38t5.66 4.35q3.53 1.8 8.03 3.22 4.5 1.43 9.22 3.04 4.73 1.62 9.23 3.75 4.5 2.14 8.02 5.4 3.53 3.27 5.67 7.99 2.13 4.72 2.13 11.47 0 7.35-2.51 13.77-2.51 6.41-7.35 11.17-4.84 4.77-11.81 7.5-6.97 2.74-15.97 2.74-5.18 0-10.21-1.01-5.02-1.01-9.63-2.89-4.62-1.88-8.66-4.5-4.06-2.62-7.21-5.85l5.93-9.67q.75-1.05 1.95-1.77 1.2-.71 2.55-.71 1.87 0 4.05 1.54 2.17 1.53 5.17 3.41 3 1.87 7.02 3.41 4.01 1.54 9.63 1.54 8.63 0 13.35-4.09 4.73-4.08 4.73-11.74 0-4.27-2.14-6.97-2.13-2.7-5.66-4.54t-8.03-3.11-9.15-2.77-9.15-3.61q-4.5-2.1-8.02-5.47t-5.66-8.44q-2.14-5.06-2.14-12.48 0-5.93 2.36-11.56 2.36-5.62 6.86-9.97t11.1-6.97q6.61-2.63 15.15-2.63 9.6 0 17.71 3 8.09 3 13.79 8.4m17.18 21.3h18.6v76.95h-18.6zm21.15-22.43q0 2.41-.98 4.5-.97 2.11-2.58 3.68-1.62 1.57-3.79 2.51-2.18.94-4.65.94-2.4 0-4.54-.94t-3.71-2.51q-1.58-1.57-2.51-3.68-.94-2.09-.94-4.5 0-2.47.94-4.64.93-2.18 2.51-3.75 1.57-1.58 3.71-2.52 2.14-.93 4.54-.93 2.47 0 4.65.93 2.17.94 3.79 2.52 1.61 1.57 2.58 3.75.98 2.17.98 4.64m34.87 99.38H328.3v-76.95h11.32q3.61 0 4.73 3.37l1.2 5.7q2.02-2.25 4.24-4.12 2.21-1.88 4.72-3.22 2.51-1.36 5.4-2.14 2.89-.79 6.34-.79 7.27 0 11.96 3.94t7.02 10.46q1.79-3.83 4.5-6.56 2.69-2.74 5.92-4.46 3.22-1.73 6.86-2.56 3.64-.82 7.31-.82 6.38 0 11.33 1.95t8.33 5.7q3.37 3.75 5.13 9.15t1.76 12.37v48.98h-18.52v-48.98q0-7.34-3.23-11.06-3.22-3.71-9.45-3.71-2.85 0-5.28.98-2.44.97-4.28 2.81-1.84 1.83-2.88 4.61-1.06 2.78-1.06 6.37v48.98h-18.6v-48.98q0-7.72-3.11-11.24-3.11-3.53-9.11-3.53-4.05 0-7.54 1.99t-6.49 5.44zm125.63-54.45v34.5q3.15 3.82 6.86 5.4 3.72 1.58 7.84 1.58 4.28 0 7.69-1.54t5.81-4.8 3.67-8.33q1.28-5.06 1.28-12.11 0-12.67-4.2-18.34-4.2-5.66-12.08-5.66-5.32 0-9.29 2.44-3.98 2.43-7.58 6.86m0-57v43.95q4.65-4.88 10.31-7.76 5.67-2.89 12.94-2.89 6.67 0 12.04 2.63 5.36 2.62 9.15 7.53 3.78 4.92 5.81 11.89t2.03 15.68q0 9.37-2.33 17.02t-6.64 13.09q-4.31 5.43-10.39 8.43-6.07 3.01-13.5 3.01-3.59 0-6.52-.72-2.92-.71-5.4-1.98-2.48-1.28-4.54-3.12-2.06-1.83-3.93-4.09l-.83 5.18q-.45 1.95-1.54 2.78-1.08.82-2.96.82h-12.23V93.675zm107.25 91.57v-12.97q-8.02.37-13.5 1.39-5.48 1.01-8.77 2.58-3.31 1.58-4.73 3.68t-1.42 4.57q0 4.88 2.88 6.98 2.89 2.1 7.54 2.1 5.7 0 9.86-2.06t8.14-6.27m-39.15-40.42-3.3-5.92q13.28-12.16 31.95-12.16 6.75 0 12.08 2.22 5.32 2.21 9 6.15 3.67 3.93 5.58 9.41 1.92 5.47 1.92 12v48.6h-8.41q-2.62 0-4.04-.79-1.43-.78-2.25-3.18l-1.65-5.56q-2.93 2.63-5.71 4.62-2.77 1.99-5.77 3.34t-6.41 2.06q-3.42.71-7.54.71-4.88 0-9-1.31-4.13-1.32-7.13-3.94t-4.65-6.52q-1.64-3.9-1.64-9.08 0-2.92.97-5.81.98-2.89 3.19-5.51 2.21-2.63 5.73-4.95 3.53-2.33 8.67-4.06 5.14-1.72 11.96-2.81 6.83-1.09 15.6-1.31v-4.5q0-7.72-3.3-11.44-3.3-3.71-9.53-3.71-4.5 0-7.46 1.05t-5.21 2.36q-2.25 1.32-4.09 2.37-1.83 1.05-4.08 1.05-1.95 0-3.31-1.02-1.35-1.01-2.17-2.36"/></svg>